# xmcd
#
# Track frame offsets: 
#        150
#        10770
#        21752
#        33877
#        43132
#        56425
#        77092
#        91297
#        106735
#        116665
#        130447
#        143952
#        157697
#        172220
#        186160
#        198952
#        210190
#        227497
#        242105
#        254167
#        266770
#        277770
#        291912
#        304075
#        316015
#
# Disc length: 4367 seconds
#
# Revision: 2
# Processed by: cddbd v1.5.2PL0 Copyright (c) Steve Scherf et al.
# Submitted via: ExactAudioCopyFreeDBPlugin 1.0
#
DISCID=54110d19
DTITLE=Various Artist - Malaco:  The Last Soul Company - A Thirty-Yea
DTITLE=r Retrospective [box set]
DYEAR=1999
DGENRE=Soul
TTITLE0=Haran Griffin - Looking for My Pig
TTITLE1=Cozy Corley - Warm Loving Man
TTITLE2=Eddie Houston - I Can't Go Wrong
TTITLE3=Jackie Dorsey - Sweetheart Baby
TTITLE4=Betty and Charles - You Can't Find Love
TTITLE5=Fred McDowell - Red Cross Store
TTITLE6=Paul Davis - Mississippi River
TTITLE7=Stefan Anderson - I Feel Better Now
TTITLE8=George Soule - Talking 'bout Love
TTITLE9=The Unemployed - Funky Thing
TTITLE10=King Floyd - Groove Me
TTITLE11=King Floyd - What Our Love Needs
TTITLE12=Bonnie and Sheila - I Miss You
TTITLE13=Joe Wilson - When a Man Cries
TTITLE14=King Floyd - Baby Let Me Kiss You
TTITLE15=Jean Knight - Mr. Big Stuff
TTITLE16=C.P. Love - I Found All These Things
TTITLE17=Mighty Sam - Mr. and Mrs. Untrue
TTITLE18=The Barons Ltd. - Gypsy Read Your Cards For Me
TTITLE19=The Golden Nuggets - Gospel Train
TTITLE20=King Floyd - Woman Don't Go Astray
TTITLE21=Chuck Brooks - Can't Be in Two Places at the Same Time
TTITLE22=Richard Caiton - Superman
TTITLE23=Carson Whitsett - Dog in the Night
TTITLE24=Dorothy Moore - Don't Let Go
EXTD=
EXTT0=
EXTT1=
EXTT2=
EXTT3=
EXTT4=
EXTT5=
EXTT6=
EXTT7=
EXTT8=
EXTT9=
EXTT10=
EXTT11=
EXTT12=
EXTT13=
EXTT14=
EXTT15=
EXTT16=
EXTT17=
EXTT18=
EXTT19=
EXTT20=
EXTT21=
EXTT22=
EXTT23=
EXTT24=
PLAYORDER=
